<mxfile host="app.diagrams.net" agent="Mozilla/5.0 (X11; Ubuntu; Linux x86_64; rv:135.0) Gecko/20100101 Firefox/135.0" version="26.0.14">
  <diagram name="Page-1" id="Oaf_cD3KClFyER8H5lYJ">
    <mxGraphModel dx="1687" dy="929" grid="1" gridSize="10" guides="1" tooltips="1" connect="1" arrows="1" fold="1" page="1" pageScale="1" pageWidth="850" pageHeight="1100" math="0" shadow="0">
      <root>
        <mxCell id="0" />
        <mxCell id="1" parent="0" />
        <mxCell id="OH9IHfaCnSHqbXLtW1up-2" value="Persistence" style="rounded=0;whiteSpace=wrap;html=1;" parent="1" vertex="1">
          <mxGeometry x="220" y="40" width="440" height="230" as="geometry" />
        </mxCell>
        <mxCell id="OH9IHfaCnSHqbXLtW1up-3" value="Interface : ContentRepository" style="rounded=0;whiteSpace=wrap;html=1;" parent="1" vertex="1">
          <mxGeometry x="270" y="40" width="340" height="60" as="geometry" />
        </mxCell>
        <mxCell id="OH9IHfaCnSHqbXLtW1up-4" value="&lt;div&gt;Interface: ContentWorker&lt;/div&gt;" style="rounded=0;whiteSpace=wrap;html=1;" parent="1" vertex="1">
          <mxGeometry x="260" y="210" width="340" height="60" as="geometry" />
        </mxCell>
        <mxCell id="OH9IHfaCnSHqbXLtW1up-5" value="" style="endArrow=none;dashed=1;html=1;rounded=0;" parent="1" edge="1">
          <mxGeometry width="50" height="50" relative="1" as="geometry">
            <mxPoint x="100" y="320" as="sourcePoint" />
            <mxPoint x="780" y="320" as="targetPoint" />
          </mxGeometry>
        </mxCell>
        <mxCell id="OH9IHfaCnSHqbXLtW1up-6" value="" style="rounded=0;whiteSpace=wrap;html=1;" parent="1" vertex="1">
          <mxGeometry x="220" y="360" width="440" height="230" as="geometry" />
        </mxCell>
        <mxCell id="OH9IHfaCnSHqbXLtW1up-8" value="Interface : CommandHandler" style="rounded=0;whiteSpace=wrap;html=1;" parent="1" vertex="1">
          <mxGeometry x="260" y="530" width="340" height="60" as="geometry" />
        </mxCell>
        <mxCell id="OH9IHfaCnSHqbXLtW1up-9" value="" style="endArrow=none;dashed=1;html=1;rounded=0;" parent="1" edge="1">
          <mxGeometry width="50" height="50" relative="1" as="geometry">
            <mxPoint x="100" y="640" as="sourcePoint" />
            <mxPoint x="780" y="640" as="targetPoint" />
          </mxGeometry>
        </mxCell>
        <mxCell id="OH9IHfaCnSHqbXLtW1up-15" value="" style="rounded=0;whiteSpace=wrap;html=1;" parent="1" vertex="1">
          <mxGeometry x="220" y="670" width="440" height="230" as="geometry" />
        </mxCell>
        <mxCell id="OH9IHfaCnSHqbXLtW1up-17" value="Controller : ContentController" style="rounded=0;whiteSpace=wrap;html=1;" parent="1" vertex="1">
          <mxGeometry x="260" y="840" width="340" height="60" as="geometry" />
        </mxCell>
        <mxCell id="OH9IHfaCnSHqbXLtW1up-18" value="" style="endArrow=none;dashed=1;html=1;rounded=0;" parent="1" edge="1">
          <mxGeometry width="50" height="50" relative="1" as="geometry">
            <mxPoint x="100" y="950" as="sourcePoint" />
            <mxPoint x="780" y="950" as="targetPoint" />
          </mxGeometry>
        </mxCell>
        <mxCell id="OH9IHfaCnSHqbXLtW1up-19" value="&lt;div&gt;&lt;font style=&quot;font-size: 40px;&quot;&gt;Shape Of Codes : Service-Content&lt;/font&gt;&lt;/div&gt;" style="text;html=1;align=center;verticalAlign=middle;resizable=0;points=[];autosize=1;strokeColor=none;fillColor=none;" parent="1" vertex="1">
          <mxGeometry x="105" y="1000" width="640" height="60" as="geometry" />
        </mxCell>
        <mxCell id="OH9IHfaCnSHqbXLtW1up-21" value="&lt;div&gt;&lt;font style=&quot;font-size: 30px;&quot;&gt;Layer 3&lt;/font&gt;&lt;/div&gt;&lt;div&gt;&lt;font style=&quot;font-size: 30px;&quot;&gt;(Driven)&lt;/font&gt;&lt;/div&gt;" style="text;html=1;align=center;verticalAlign=middle;whiteSpace=wrap;rounded=0;rotation=-90;" parent="1" vertex="1">
          <mxGeometry x="40" y="90" width="160" height="70" as="geometry" />
        </mxCell>
        <mxCell id="OH9IHfaCnSHqbXLtW1up-22" value="&lt;div&gt;&lt;font style=&quot;font-size: 30px;&quot;&gt;Layer 2&lt;/font&gt;&lt;/div&gt;&lt;div&gt;&lt;font style=&quot;font-size: 30px;&quot;&gt;(Business)&lt;/font&gt;&lt;/div&gt;" style="text;html=1;align=center;verticalAlign=middle;whiteSpace=wrap;rounded=0;rotation=-90;" parent="1" vertex="1">
          <mxGeometry x="55" y="450" width="130" height="40" as="geometry" />
        </mxCell>
        <mxCell id="OH9IHfaCnSHqbXLtW1up-23" value="&lt;div&gt;&lt;font style=&quot;font-size: 30px;&quot;&gt;Layer 1&lt;/font&gt;&lt;/div&gt;&lt;div&gt;&lt;font style=&quot;font-size: 30px;&quot;&gt;(Driving)&lt;/font&gt;&lt;/div&gt;" style="text;html=1;align=center;verticalAlign=middle;whiteSpace=wrap;rounded=0;rotation=-90;" parent="1" vertex="1">
          <mxGeometry x="55" y="790" width="130" height="30" as="geometry" />
        </mxCell>
      </root>
    </mxGraphModel>
  </diagram>
</mxfile>
